# xmcd CD database file
#
# Track frame offsets:
#	150
#	15800
#	31642
#	49123
#	62919
#	76261
#	91899
#	107073
#	125462
#	146017
#	164913
#	180559
#	202625
#	218412
#	234060
#	278504
#
# Disc length: 3999 seconds
#
# Revision: 1
# Processed by: cddbd v1.5.1PL0 Copyright (c) Steve Scherf et al.
# Submitted via: CDex 1.51
#
DISCID=bf0f9d10
DTITLE=Billie Holiday - Lady in Satin
DYEAR=1997
DGENRE=Jazz
TTITLE0=I'm a fool to want you
TTITLE1=For Heaven's sake
TTITLE2=You don't know what love is
TTITLE3=I get along without you very well
TTITLE4=For all we know
TTITLE5=Violets for your furs
TTITLE6=You've changed
TTITLE7=It's easy to remember
TTITLE8=But beautiful
TTITLE9=Glad to be unhappy
TTITLE10=I'll be around
TTITLE11=The end of a love afair
TTITLE12=I'm a fool to want you
TTITLE13=I'm a fool to want you
TTITLE14=The end of a love afair
TTITLE15=The end of a love afair
EXTD=YEAR: 1997
EXTT0=
EXTT1=
EXTT2=
EXTT3=
EXTT4=
EXTT5=
EXTT6=
EXTT7=
EXTT8=
EXTT9=
EXTT10=
EXTT11=
EXTT12=
EXTT13=
EXTT14=
EXTT15=
PLAYORDER=
